HIERARCHY
ROOT walk
{
	OFFSET 0 0 0
	CHANNELS 6 Xposition Yposition Zposition Zrotation Xrotation Yrotation
	JOINT walk1
	{
		OFFSET 0 0 0
		CHANNELS 3 Zrotation Xrotation Yrotation
		JOINT _no_name_
		{
			OFFSET 0 0 0
			CHANNELS 3 Zrotation Xrotation Yrotation
			JOINT walk2
			{
				OFFSET 0 0 0
				CHANNELS 3 Zrotation Xrotation Yrotation
				JOINT idle
				{
					OFFSET 0 0 0
					CHANNELS 3 Zrotation Xrotation Yrotation
					JOINT Abdomen
					{
						OFFSET -0.004105 1.40694 0.023291
						CHANNELS 3 Zrotation Xrotation Yrotation
						JOINT Chest
						{
							OFFSET 0.005368 0.267202 -0.042337
							CHANNELS 3 Zrotation Xrotation Yrotation
							JOINT Neck
							{
								OFFSET -0.00498936 0.26984 -0.0265572
								CHANNELS 3 Zrotation Xrotation Yrotation
								JOINT Head
								{
									OFFSET 0.00108195 0.101193 0.0333381
									CHANNELS 3 Zrotation Xrotation Yrotation
									JOINT blink
									{
										OFFSET 0.00353779 0.0233099 0.0746863
										CHANNELS 3 Zrotation Xrotation Yrotation
										End Site
										{
											OFFSET 0 0 0
										}
									}
									JOINT brow
									{
										OFFSET 0.00440768 0.0596471 0.0806108
										CHANNELS 3 Zrotation Xrotation Yrotation
										End Site
										{
											OFFSET 0 0 0
										}
									}
									JOINT reye
									{
										OFFSET -0.0344955 0.0354559 0.0834761
										CHANNELS 3 Zrotation Xrotation Yrotation
										End Site
										{
											OFFSET 0 0 0
										}
									}
									JOINT leye
									{
										OFFSET 0.0409459 0.0346091 0.0803096
										CHANNELS 3 Zrotation Xrotation Yrotation
										End Site
										{
											OFFSET 0 0 0
										}
									}
									JOINT smile
									{
										OFFSET 0.00276452 -0.0450239 0.0962102
										CHANNELS 3 Zrotation Xrotation Yrotation
										End Site
										{
											OFFSET 0 0 0
										}
									}
									JOINT mouth
									{
										OFFSET -0.00667373 -0.0428159 0.0125337
										CHANNELS 3 Zrotation Xrotation Yrotation
										End Site
										{
											OFFSET 0 0 0
										}
									}
									JOINT Pony1
									{
										OFFSET -0.00691228 0.0623319 -0.155624
										CHANNELS 3 Zrotation Xrotation Yrotation
										JOINT pony2
										{
											OFFSET 0.0013708 -0.115109 -0.0333219
											CHANNELS 3 Zrotation Xrotation Yrotation
											End Site
											{
												OFFSET 0 0 0
											}
										}
									}
								}
							}
							JOINT rShldr
							{
								OFFSET -0.174521 0.148378 -0.0219776
								CHANNELS 3 Zrotation Xrotation Yrotation
								JOINT rArm
								{
									OFFSET -0.122341 -0.32871 0.151207
									CHANNELS 3 Zrotation Xrotation Yrotation
									JOINT rHand
									{
										OFFSET -0.0335038 -0.203119 0.239969
										CHANNELS 3 Zrotation Xrotation Yrotation
										JOINT rFngr
										{
											OFFSET -0.0110144 -0.0557272 0.0779683
											CHANNELS 3 Zrotation Xrotation Yrotation
											End Site
											{
												OFFSET 0 0 0
											}
										}
									}
								}
							}
							JOINT lShldr
							{
								OFFSET 0.187168 0.142087 -0.113633
								CHANNELS 3 Zrotation Xrotation Yrotation
								JOINT lArm
								{
									OFFSET 0.0749112 -0.31802 -0.0490561
									CHANNELS 3 Zrotation Xrotation Yrotation
									JOINT lHand
									{
										OFFSET 0.115364 -0.291407 0.0316988
										CHANNELS 3 Zrotation Xrotation Yrotation
										JOINT lFngr
										{
											OFFSET 0.044904 -0.114343 0.0129011
											CHANNELS 3 Zrotation Xrotation Yrotation
											End Site
											{
												OFFSET 0 0 0
											}
										}
									}
								}
							}
							JOINT rboob
							{
								OFFSET -0.0575242 -0.0216219 0.159025
								CHANNELS 3 Zrotation Xrotation Yrotation
								End Site
								{
									OFFSET 0 0 0
								}
							}
							JOINT lboob
							{
								OFFSET 0.115711 -0.025588 0.116239
								CHANNELS 3 Zrotation Xrotation Yrotation
								End Site
								{
									OFFSET 0 0 0
								}
							}
						}
						JOINT hip
						{
							OFFSET -0.000741 -0.17168 -0.04419
							CHANNELS 3 Zrotation Xrotation Yrotation
							JOINT rThigh
							{
								OFFSET -0.115318 -0.0575235 -0.038701
								CHANNELS 3 Zrotation Xrotation Yrotation
								JOINT rShin
								{
									OFFSET 0.0121913 -0.561695 -0.0681905
									CHANNELS 3 Zrotation Xrotation Yrotation
									JOINT rFoot
									{
										OFFSET 0.000278868 -0.494966 -0.163968
										CHANNELS 3 Zrotation Xrotation Yrotation
										JOINT rToe
										{
											OFFSET -0.0603155 -0.129313 0.115054
											CHANNELS 3 Zrotation Xrotation Yrotation
											End Site
											{
												OFFSET 0 0 0
											}
										}
									}
								}
							}
							JOINT lThigh
							{
								OFFSET 0.118454 -0.0761647 0.011076
								CHANNELS 3 Zrotation Xrotation Yrotation
								JOINT lshin
								{
									OFFSET -0.0141692 -0.523392 0.0852758
									CHANNELS 3 Zrotation Xrotation Yrotation
									JOINT lFoot
									{
										OFFSET -0.00851462 -0.462988 -0.237235
										CHANNELS 3 Zrotation Xrotation Yrotation
										JOINT lToe
										{
											OFFSET 0.0369661 -0.154543 0.0971837
											CHANNELS 3 Zrotation Xrotation Yrotation
											End Site
											{
												OFFSET 0 0 0
											}
										}
									}
								}
							}
						}
						JOINT Body
						{
							OFFSET 0 0 0
							CHANNELS 3 Zrotation Xrotation Yrotation
							End Site
							{
								OFFSET 0 0 0
							}
						}
					}
				}
			}
			JOINT _no_name_1
			{
				OFFSET 0 0 0
				CHANNELS 3 Zrotation Xrotation Yrotation
				End Site
				{
					OFFSET 0 0 0
				}
			}
		}
	}
}
MOTION
Frames: 15
Frame Time: 0.333333
0 0 0 0 0 0 0 0 0 0 0 0 0 0 0 0 0 0 0 0 0 0 0 -9.98295 0 0 7.16904 0 0 -2.68188e-008 0 0 -2.68188e-008 0 0 -2.68188e-008 0 0 -1.01566e-005 0 0 -2.68188e-008 0 0 -2.68188e-008 0 0 -2.68188e-008 0.284743 -5.77352 0.0143586 0.420457 -8.4915 0.031214 -22.5856 9.86596 -20.3757 -0.973577 2.11593 -1.14575 -1.8324 2.39239 1.11311 -4.86025e-007 -4.09237e-007 9.38668e-007 32.4803 -1.19734 -11.863 0.730874 -3.37895 -2.13814 2.2544e-007 -3.03508e-007 -1.76281e-007 2.2544e-007 -3.03508e-007 -1.76281e-007 0 0 -1.20134e-007 0 0 -1.20134e-007 4.7618 0.110932 -0.673428 -1.77724 -14.6025 9.78009 -1.37879e-008 -1.02761e-009 -1.23414e-007 -0.626678 -4.29674 0.182959 1.58417 10.318 -0.640482 -6.57346 4.94916 3.83187 -1.88716 -28.5635 -1.37218 -0.615479 -10.9316 -0.393924 1.96632 39.4399 0.549632 0 0 0 0 0 0 
0 0 0 0 0 0 0 0 0 0 0 0 0 0 0 0 0 0 2.02432 -2.92139 0.0441723 0 0 -9.98295 0 0 7.16904 0 0 -2.68188e-008 0 0 -2.68188e-008 0 0 -2.68188e-008 0 0 -1.01566e-005 0 0 -2.68188e-008 0 0 -2.68188e-008 0 0 -2.68188e-008 0.284743 -5.77352 0.0143586 0.420457 -8.4915 0.031214 -9.36672 16.8664 -29.3666 2.68563 23.6178 74.8931 -65.709 -60.9569 -49.3702 -2.30538 -19.5532 -8.10135 -4.37401 -7.39521 -10.3081 0.730874 -3.37895 -2.13814 2.2544e-007 -3.03508e-007 -1.76281e-007 2.2544e-007 -3.03508e-007 -1.76281e-007 0 0 -1.20134e-007 0 0 -1.20134e-007 -3.24873 4.60371 -0.418629 0.723923 -14.5732 9.78537 -1.37879e-008 -1.02761e-009 -1.23414e-007 -3.89523 -8.55936 -7.63608 1.34722 8.83794 -0.529838 5.5905 -10.902 3.37399 -1.25384 -20.588 -0.86381 0.555252 11.0273 0.284278 0.528714 10.482 0.272576 0 0 0 0 0 0 
0 0 0 0 0 0 0 0 0 0 0 0 0 0 0 0 0 0 2.02432 -2.92139 0.0441723 0 0 -9.98295 -3.23397 5.97203 19.545 0 0 -2.68188e-008 0 0 -2.68188e-008 0 0 -2.68188e-008 6.74652 12.9122 7.84377 -2.91744 10.3816 8.68969 0 0 -2.68188e-008 0 0 -2.68188e-008 0.284743 -5.77352 0.0143586 0.420457 -8.4915 0.0312143 -9.36674 16.8664 -29.3666 2.68564 23.6178 74.8931 -65.709 -60.9569 -49.3702 -2.30538 -19.5532 -8.10135 -1.60691 -14.4968 -23.8651 12.6051 5.69501 -10.6627 29.2577 9.97515 -8.14198 25.4011 8.94982 -6.81641 0 0 -1.20134e-007 0 0 -1.20134e-007 -3.24874 4.60371 -0.418621 0.72391 -14.5732 9.78537 -1.37879e-008 -1.02761e-009 -1.23414e-007 -3.89523 -8.55936 -7.63608 1.34723 8.83794 -0.529838 5.59049 -10.902 3.37399 -1.25384 -20.588 -0.86381 0.555252 11.0273 0.284278 0.528714 10.482 0.272576 0 0 0 0 0 0 
0 0 0 0 0 0 0 0 0 0 0 0 0 0 0 0 0 0 2.02432 -2.92139 0.0441723 0 0 -9.98295 -7.7404 11.0945 32.4219 0 0 -2.68188e-008 0 0 -2.68188e-008 0 0 -2.68188e-008 12.0674 26.5706 14.6406 -7.60526 20.1698 18.3545 0 0 -2.68188e-008 0 0 -2.68188e-008 0.284743 -5.77352 0.0143586 0.420457 -8.4915 0.031214 -9.36672 16.8664 -29.3666 2.68563 23.6178 74.8931 -65.709 -60.9569 -49.3702 -2.30538 -19.5532 -8.10135 -0.591736 -22.0384 -37.6297 25.9802 12.6881 -21.0956 60.4252 14.5119 -20.4491 52.313 13.9886 -17.0649 0 0 -1.20134e-007 0 0 -1.20134e-007 -3.24873 4.60371 -0.418629 0.723923 -14.5732 9.78537 -1.37879e-008 -1.02761e-009 -1.23414e-007 -3.89523 -8.55936 -7.63608 1.34722 8.83794 -0.529838 5.5905 -10.902 3.37399 -1.25384 -20.588 -0.86381 0.555252 11.0273 0.284278 0.528714 10.482 0.272576 0 0 0 0 0 0 
0 0 0 0 0 0 0 0 0 0 0 0 0 0 0 0 0 0 2.02432 -2.92139 0.0441723 0 0 -9.98295 -8.08047 11.4316 39.8367 0 0 -2.68188e-008 0 0 -2.68188e-008 0 0 -2.68188e-008 16.655 40.0816 19.6062 -12.2768 26.6464 28.273 0 0 -2.68188e-008 0 0 -2.68188e-008 0.284743 -5.77352 0.0143586 0.420457 -8.4915 0.0312143 -9.36674 16.8664 -29.3666 2.68561 23.6178 74.8931 -65.7092 -60.9569 -49.3704 -2.30538 -19.5532 -8.10135 0.0111646 -21.5019 -36.4817 27.9672 12.5198 -16.8637 48.2053 13.5455 -15.3826 59.3615 25.9671 -23.0195 0 0 -1.20134e-007 0 0 -1.20134e-007 -3.24874 4.60371 -0.418621 0.723967 -14.5732 9.78537 -1.37879e-008 -1.02761e-009 -1.23414e-007 -3.89523 -8.55936 -7.63608 1.3472 8.83777 -0.529826 5.59049 -10.902 3.37399 -1.25383 -20.5879 -0.863807 0.555252 11.0273 0.284278 0.528714 10.482 0.272576 0 0 0 0 0 0 
0 0 0 0 0 0 0 0 0 0 0 0 0 0 0 0 0 0 2.02432 -2.92139 0.0441723 0 0 -9.98295 -8.46252 11.7229 47.2617 0 0 -2.68188e-008 0 0 -2.68188e-008 0 0 -2.68188e-008 20.6077 53.8645 24.1997 -18.4738 32.2339 39.3836 0 0 -2.68188e-008 0 0 -2.68188e-008 0.284743 -5.77352 0.0143586 0.420457 -8.4915 0.031214 -9.36672 16.8664 -29.3666 2.68561 23.6177 74.893 -65.7093 -60.9569 -49.3705 -2.30538 -19.5532 -8.10135 0.600207 -20.9544 -35.3441 29.9607 12.4952 -12.6299 36.1885 11.5683 -10.6669 68.8369 37.0276 -31.532 0 0 -1.20134e-007 0 0 -1.20134e-007 -3.24873 4.60371 -0.418629 0.724038 -14.5732 9.78537 -1.37879e-008 -1.02761e-009 -1.23414e-007 -3.89523 -8.55936 -7.63608 1.34717 8.8376 -0.529814 5.5905 -10.902 3.37399 -1.25383 -20.5879 -0.863803 0.555252 11.0273 0.284278 0.528714 10.482 0.272576 0 0 0 0 0 0 
0 0 0 0 0 0 0 0 0 0 0 0 0 0 0 0 0 0 2.02432 -2.92139 0.0441723 0 0 -9.98295 -8.08047 11.4316 39.8367 0 0 -2.68188e-008 0 0 -2.68188e-008 0 0 -2.68188e-008 16.655 40.0816 19.6062 -12.2768 26.6464 28.273 0 0 -2.68188e-008 0 0 -2.68188e-008 0.284743 -5.77352 0.0143586 0.420457 -8.4915 0.0312143 -9.36674 16.8664 -29.3666 2.68561 23.6178 74.8931 -65.7092 -60.9569 -49.3704 -2.30538 -19.5532 -8.10135 0.0111646 -21.5019 -36.4817 27.9672 12.5198 -16.8637 48.2053 13.5455 -15.3826 59.3615 25.9671 -23.0195 0 0 -1.20134e-007 0 0 -1.20134e-007 -3.24874 4.60371 -0.418621 0.723967 -14.5732 9.78537 -1.37879e-008 -1.02761e-009 -1.23414e-007 -3.89523 -8.55936 -7.63608 1.3472 8.83777 -0.529826 5.59049 -10.902 3.37399 -1.25383 -20.5879 -0.863807 0.555252 11.0273 0.284278 0.528714 10.482 0.272576 0 0 0 0 0 0 
0 0 0 0 0 0 0 0 0 0 0 0 0 0 0 0 0 0 2.02432 -2.92139 0.0441723 0 0 -9.98295 -7.7404 11.0945 32.4219 0 0 -2.68188e-008 0 0 -2.68188e-008 0 0 -2.68188e-008 12.0674 26.5706 14.6406 -7.60526 20.1698 18.3545 0 0 -2.68188e-008 0 0 -2.68188e-008 0.284743 -5.77352 0.0143586 0.420457 -8.4915 0.031214 -9.36672 16.8664 -29.3666 2.68563 23.6178 74.8931 -65.709 -60.9569 -49.3702 -2.30538 -19.5532 -8.10135 -0.591736 -22.0384 -37.6297 25.9802 12.6881 -21.0956 60.4252 14.5119 -20.4491 52.313 13.9886 -17.0649 0 0 -1.20134e-007 0 0 -1.20134e-007 -3.24873 4.60371 -0.418629 0.723923 -14.5732 9.78537 -1.37879e-008 -1.02761e-009 -1.23414e-007 -3.89523 -8.55936 -7.63608 1.34722 8.83794 -0.529838 5.5905 -10.902 3.37399 -1.25384 -20.588 -0.86381 0.555252 11.0273 0.284278 0.528714 10.482 0.272576 0 0 0 0 0 0 
0 0 0 0 0 0 0 0 0 0 0 0 0 0 0 0 0 0 2.02432 -2.92139 0.0441723 0 0 -9.98295 -7.74039 11.0945 32.4219 0 0 -2.68188e-008 0 0 -2.68188e-008 0 0 -2.68188e-008 12.0674 26.5706 14.6406 -7.60526 20.1698 18.3545 0 0 -2.68188e-008 0 0 -2.68188e-008 0.284743 -5.77352 0.0143586 0.420457 -8.4915 0.0312143 -9.36674 16.8664 -29.3666 2.68564 23.6178 74.8931 -65.709 -60.9569 -49.3702 -2.30538 -19.5532 -8.10135 -0.591726 -22.0383 -37.6297 25.9802 12.6881 -21.0956 60.4252 14.5119 -20.4491 52.313 13.9886 -17.0649 0 0 -1.20134e-007 0 0 -1.20134e-007 -3.24874 4.60371 -0.418621 0.72391 -14.5732 9.78537 -1.37879e-008 -1.02761e-009 -1.23414e-007 -3.89523 -8.55936 -7.63608 1.34723 8.83794 -0.529838 5.59049 -10.902 3.37399 -1.25384 -20.588 -0.86381 0.555252 11.0273 0.284278 0.528714 10.482 0.272576 0 0 0 0 0 0 
0 0 0 0 0 0 0 0 0 0 0 0 0 0 0 0 0 0 2.02432 -2.92139 0.0441723 0 0 -9.98295 -7.7404 11.0945 32.4219 0 0 -2.68188e-008 0 0 -2.68188e-008 0 0 -2.68188e-008 12.0674 26.5706 14.6406 -7.60526 20.1698 18.3545 0 0 -2.68188e-008 0 0 -2.68188e-008 0.284743 -5.77352 0.0143586 0.420457 -8.4915 0.031214 -9.36672 16.8664 -29.3666 2.68563 23.6178 74.8931 -65.709 -60.9569 -49.3702 -2.30538 -19.5532 -8.10135 -0.591736 -22.0384 -37.6297 25.9802 12.6881 -21.0956 60.4252 14.5119 -20.4491 52.313 13.9886 -17.0649 0 0 -1.20134e-007 0 0 -1.20134e-007 -3.24873 4.60371 -0.418629 0.723923 -14.5732 9.78537 -1.37879e-008 -1.02761e-009 -1.23414e-007 -3.89523 -8.55936 -7.63608 1.34722 8.83794 -0.529838 5.5905 -10.902 3.37399 -1.25384 -20.588 -0.86381 0.555252 11.0273 0.284278 0.528714 10.482 0.272576 0 0 0 0 0 0 
0 0 0 0 0 0 0 0 0 0 0 0 0 0 0 0 0 0 2.02432 -2.92139 0.0441723 0 0 -9.98295 -8.08047 11.4316 39.8367 0 0 -2.68188e-008 0 0 -2.68188e-008 0 0 -2.68188e-008 16.655 40.0816 19.6062 -12.2768 26.6464 28.273 0 0 -2.68188e-008 0 0 -2.68188e-008 0.284743 -5.77352 0.0143586 0.420457 -8.4915 0.0312143 -9.36674 16.8664 -29.3666 2.68561 23.6178 74.8931 -65.7092 -60.9569 -49.3704 -2.30538 -19.5532 -8.10135 0.0111646 -21.5019 -36.4817 27.9672 12.5198 -16.8637 48.2053 13.5455 -15.3826 59.3615 25.9671 -23.0195 0 0 -1.20134e-007 0 0 -1.20134e-007 -3.24874 4.60371 -0.418621 0.723967 -14.5732 9.78537 -1.37879e-008 -1.02761e-009 -1.23414e-007 -3.89523 -8.55936 -7.63608 1.3472 8.83777 -0.529826 5.59049 -10.902 3.37399 -1.25383 -20.5879 -0.863807 0.555252 11.0273 0.284278 0.528714 10.482 0.272576 0 0 0 0 0 0 
0 0 0 0 0 0 0 0 0 0 0 0 0 0 0 0 0 0 2.02432 -2.92139 0.0441723 0 0 -9.98295 -8.46252 11.7229 47.2617 0 0 -2.68188e-008 0 0 -2.68188e-008 0 0 -2.68188e-008 20.6077 53.8645 24.1997 -18.4738 32.2339 39.3836 0 0 -2.68188e-008 0 0 -2.68188e-008 0.284743 -5.77352 0.0143586 0.420457 -8.4915 0.031214 -9.36672 16.8664 -29.3666 2.68561 23.6177 74.893 -65.7093 -60.9569 -49.3705 -2.30538 -19.5532 -8.10135 0.600207 -20.9544 -35.3441 29.9607 12.4952 -12.6299 36.1885 11.5683 -10.6669 68.8369 37.0276 -31.532 0 0 -1.20134e-007 0 0 -1.20134e-007 -3.24873 4.60371 -0.418629 0.724038 -14.5732 9.78537 -1.37879e-008 -1.02761e-009 -1.23414e-007 -3.89523 -8.55936 -7.63608 1.34717 8.8376 -0.529814 5.5905 -10.902 3.37399 -1.25383 -20.5879 -0.863803 0.555252 11.0273 0.284278 0.528714 10.482 0.272576 0 0 0 0 0 0 
0 0 0 0 0 0 0 0 0 0 0 0 0 0 0 0 0 0 2.02432 -2.92139 0.0441723 0 0 -9.98295 -8.08047 11.4316 39.8367 0 0 -2.68188e-008 0 0 -2.68188e-008 0 0 -2.68188e-008 16.655 40.0816 19.6062 -12.2768 26.6464 28.273 0 0 -2.68188e-008 0 0 -2.68188e-008 0.284743 -5.77352 0.0143586 0.420457 -8.4915 0.0312143 -9.36674 16.8664 -29.3666 2.68561 23.6178 74.8931 -65.7092 -60.9569 -49.3704 -2.30538 -19.5532 -8.10135 0.0111646 -21.5019 -36.4817 27.9672 12.5198 -16.8637 48.2053 13.5455 -15.3826 59.3615 25.9671 -23.0195 0 0 -1.20134e-007 0 0 -1.20134e-007 -3.24874 4.60371 -0.418621 0.723967 -14.5732 9.78537 -1.37879e-008 -1.02761e-009 -1.23414e-007 -3.89523 -8.55936 -7.63608 1.3472 8.83777 -0.529826 5.59049 -10.902 3.37399 -1.25383 -20.5879 -0.863807 0.555252 11.0273 0.284278 0.528714 10.482 0.272576 0 0 0 0 0 0 
0 0 0 0 0 0 0 0 0 0 0 0 0 0 0 0 0 0 2.02432 -2.92139 0.0441723 0 0 -9.98295 -7.7404 11.0945 32.4219 0 0 -2.68188e-008 0 0 -2.68188e-008 0 0 -2.68188e-008 12.0674 26.5706 14.6406 -7.60526 20.1698 18.3545 0 0 -2.68188e-008 0 0 -2.68188e-008 0.284743 -5.77352 0.0143586 0.420457 -8.4915 0.031214 -9.36672 16.8664 -29.3666 2.68563 23.6178 74.8931 -65.709 -60.9569 -49.3702 -2.30538 -19.5532 -8.10135 -0.591736 -22.0384 -37.6297 25.9802 12.6881 -21.0956 60.4252 14.5119 -20.4491 52.313 13.9886 -17.0649 0 0 -1.20134e-007 0 0 -1.20134e-007 -3.24873 4.60371 -0.418629 0.723923 -14.5732 9.78537 -1.37879e-008 -1.02761e-009 -1.23414e-007 -3.89523 -8.55936 -7.63608 1.34722 8.83794 -0.529838 5.5905 -10.902 3.37399 -1.25384 -20.588 -0.86381 0.555252 11.0273 0.284278 0.528714 10.482 0.272576 0 0 0 0 0 0 
0 0 0 0 0 0 0 0 0 0 0 0 0 0 0 0 0 0 2.0243 -2.92138 -4.62249 0 0 -9.98295 -3.60903 7.49896 18.1675 0 0 -2.68188e-008 0 0 -2.68188e-008 0.254332 -5.16042 0.0114613 12.0674 26.5706 18.474 -7.60528 20.1698 12.3545 -1.07022 20.807 0.196496 -0.0818427 1.66464 0.00118899 0.284743 -5.77352 0.0143586 0.420457 -8.4915 0.0312143 -9.36674 16.8664 -29.3666 2.68564 23.6178 74.8931 -65.709 -60.9569 -49.3702 -2.30538 -19.5532 -8.10135 -2.25649 -19.7969 -34.7263 17.216 10.8861 -28.9535 41.8108 14.48 -12.7717 40.6202 12.4148 -12.3632 0 0 -1.20134e-007 0 0 -1.20134e-007 -3.27091 4.94892 3.73549 0.72391 -14.5732 9.78537 -1.37879e-008 -1.02761e-009 -1.23414e-007 -3.89523 -8.55936 -7.63608 1.34723 8.83794 -0.529838 5.59049 -10.902 3.37399 -1.25384 -20.588 -0.86381 0.555252 11.0273 0.284278 0.528714 10.482 0.272576 0 0 0 0 0 0 
